<?xml version="1.0" standalone="no"?>
<!DOCTYPE svg PUBLIC "-//W3C//DTD SVG 20010904//EN"
 "http://www.w3.org/TR/2001/REC-SVG-20010904/DTD/svg10.dtd">
<svg version="1.0" xmlns="http://www.w3.org/2000/svg"
 width="2480.000000pt" height="2480.000000pt" viewBox="0 0 2480.000000 2480.000000"
 preserveAspectRatio="xMidYMid meet">
<metadata>
Created by potrace 1.11, written by Peter Selinger 2001-2013
</metadata>
<g transform="translate(0.000000,2480.000000) scale(0.100000,-0.100000)"
fill="#000000" stroke="none">
<path d="M8620 17910 c-49 -9 -95 -35 -118 -67 -46 -65 -190 -340 -419 -803
-324 -654 -284 -585 -330 -587 -21 0 -92 -4 -158 -7 -66 -4 -167 -8 -225 -11
-108 -5 -214 -11 -380 -20 -528 -31 -828 -172 -959 -449 -59 -125 -84 -289
-61 -401 42 -209 217 -371 472 -437 66 -17 114 -22 233 -22 152 -1 192 3 325
29 14 3 36 8 50 10 14 3 46 9 73 13 26 5 47 8 47 6 0 -2 -30 -66 -66 -141 -37
-76 -79 -165 -94 -198 -15 -33 -55 -118 -89 -189 -34 -71 -77 -161 -96 -200
-30 -65 -53 -113 -165 -351 -21 -44 -61 -129 -90 -190 -29 -60 -67 -141 -85
-180 -18 -38 -48 -104 -67 -145 -20 -41 -47 -100 -61 -130 -13 -30 -79 -172
-145 -315 -159 -346 -168 -365 -198 -438 -14 -34 -35 -81 -45 -104 -10 -23
-19 -45 -19 -48 0 -4 -7 -21 -15 -38 -38 -84 -130 -383 -150 -488 -3 -13 -7
-36 -10 -51 -4 -15 -8 -41 -10 -59 -3 -18 -10 -38 -17 -45 -24 -22 -283 -155
-408 -208 -332 -142 -600 -193 -844 -160 -144 19 -235 58 -312 134 -86 84
-125 199 -118 347 6 128 31 205 155 471 22 46 39 85 39 87 0 1 25 55 55 120
30 64 55 118 55 119 0 2 44 99 99 217 54 118 108 235 119 260 195 429 134 819
-168 1067 -162 132 -454 225 -685 218 -112 -4 -126 -7 -188 -34 -107 -48 -141
-128 -152 -364 -7 -144 -11 -190 -20 -238 -3 -19 -7 -42 -9 -50 -6 -31 -28
-103 -36 -119 -13 -21 -160 -332 -160 -336 0 -1 -32 -69 -70 -149 -39 -81 -70
-149 -70 -151 0 -2 -18 -43 -41 -92 -22 -48 -49 -106 -59 -128 -10 -22 -73
-161 -140 -309 -67 -148 -131 -292 -142 -320 -86 -219 -130 -431 -132 -631 0
-71 12 -223 18 -234 2 -3 7 -23 10 -44 15 -96 82 -253 152 -358 172 -256 459
-421 859 -493 147 -27 486 -28 621 -2 11 2 59 11 108 21 398 74 936 305 1423
610 l132 83 30 -63 c130 -279 399 -493 731 -584 85 -23 110 -28 250 -50 102
-16 432 -6 590 18 80 13 148 25 151 27 4 2 24 6 45 10 22 3 93 19 159 35 302
75 627 189 960 336 160 71 469 225 490 244 17 16 30 9 63 -33 60 -78 176 -192
242 -238 19 -13 37 -27 40 -30 25 -28 244 -145 310 -165 14 -4 30 -11 35 -15
11 -9 181 -56 234 -65 19 -3 37 -8 41 -10 3 -2 33 -7 65 -10 33 -4 80 -11 104
-15 47 -9 489 -6 531 3 28 6 90 15 165 23 28 3 53 8 56 10 4 2 24 6 45 10 64
9 232 53 349 91 614 197 1203 592 1750 1174 58 61 174 194 278 318 63 76 244
325 321 441 49 74 97 147 107 162 21 31 102 166 112 188 4 8 17 31 28 50 60
98 194 364 259 513 24 53 45 96 47 94 2 -3 25 0 51 5 26 5 63 11 82 14 19 3
53 10 75 16 45 11 68 17 105 24 14 3 39 9 56 15 17 5 41 12 53 14 11 3 30 7
42 10 88 19 579 181 622 205 31 18 18 1 -65 -83 -153 -154 -245 -257 -423
-472 -113 -137 -385 -521 -385 -545 0 -4 -8 -18 -19 -31 -37 -48 -141 -250
-209 -404 -274 -628 -224 -1191 138 -1554 128 -129 224 -193 401 -269 46 -20
170 -57 219 -66 14 -2 41 -7 60 -10 91 -16 296 -22 380 -11 19 3 55 7 80 10
25 3 54 8 65 10 11 3 31 7 45 9 277 51 613 207 899 418 92 68 251 198 299 245
13 13 25 23 27 23 2 0 15 -26 30 -57 69 -152 199 -303 351 -410 77 -53 264
-134 345 -148 18 -3 36 -8 39 -10 4 -3 23 -7 41 -10 19 -3 59 -9 89 -14 82
-14 321 -11 430 5 351 52 712 213 1052 471 222 167 445 386 621 607 44 56 82
103 84 106 3 3 2 -9 -1 -27 -8 -33 -10 -52 -21 -148 -7 -63 -8 -226 -1 -260 2
-11 7 -47 11 -80 4 -32 16 -89 27 -125 100 -326 353 -531 713 -578 74 -10 316
-8 375 2 19 4 62 11 95 17 319 56 676 230 1010 492 50 39 108 87 130 106 55
49 352 347 395 397 90 103 280 355 280 371 0 3 6 14 14 22 28 32 115 208 140
283 60 177 14 288 -118 288 -83 0 -134 -40 -311 -245 -124 -143 -347 -369
-459 -465 -27 -23 -54 -47 -61 -53 -6 -7 -24 -21 -39 -32 -16 -11 -33 -25 -40
-30 -25 -23 -148 -105 -156 -105 -6 0 -10 -3 -10 -7 0 -5 -10 -13 -23 -19 -12
-6 -71 -36 -132 -67 -60 -31 -153 -70 -205 -88 -80 -28 -110 -33 -190 -33 -70
-1 -103 3 -125 16 -123 67 -170 235 -141 503 5 39 10 77 11 86 2 9 6 40 10 70
4 30 8 56 10 59 2 3 6 23 9 45 9 61 89 389 141 580 25 94 48 178 50 188 3 9 7
25 9 35 3 9 18 69 35 132 42 159 43 164 47 267 5 143 -35 251 -130 345 -76 76
-164 113 -261 109 -105 -4 -147 -41 -320 -276 -179 -243 -536 -716 -583 -770
-9 -11 -48 -61 -87 -110 -38 -50 -72 -92 -75 -95 -3 -3 -39 -45 -80 -95 -41
-49 -97 -114 -125 -144 -456 -491 -851 -747 -1136 -735 -84 3 -111 10 -177 42
-176 86 -267 309 -222 542 6 30 13 70 16 89 9 54 70 217 121 320 66 136 216
370 300 468 10 11 34 41 53 64 269 332 735 758 1115 1020 28 19 52 37 55 40
14 16 327 210 438 270 204 111 366 179 536 225 119 32 185 32 214 1 31 -33 28
-68 -14 -156 -50 -107 -61 -165 -45 -243 39 -188 245 -295 453 -233 35 11 65
22 68 25 3 3 23 14 45 25 47 24 119 93 162 156 35 52 80 160 89 215 3 22 8 43
11 47 11 18 2 186 -12 241 -95 363 -478 551 -1025 504 -71 -7 -243 -32 -351
-53 -200 -38 -620 -176 -884 -291 -923 -400 -1861 -1177 -2390 -1979 -104
-158 -185 -309 -278 -515 -17 -40 -81 -234 -96 -295 -9 -34 -19 -45 -65 -73
-238 -142 -491 -232 -700 -248 -109 -8 -94 -8 -185 1 -237 23 -386 151 -448
385 -22 81 -24 313 -4 415 107 555 427 1042 1025 1560 38 33 108 94 155 135
47 42 109 93 136 115 28 22 52 42 55 45 3 3 30 24 60 46 165 123 201 221 150
411 -27 99 -62 171 -109 224 -51 59 -99 81 -181 86 -78 5 -141 -7 -373 -71
-71 -20 -138 -38 -150 -40 -12 -3 -78 -19 -147 -36 -106 -26 -190 -46 -285
-66 -90 -19 -316 -64 -340 -68 -16 -3 -39 -8 -50 -10 -11 -2 -40 -7 -65 -11
-25 -4 -52 -9 -60 -10 -8 -1 -35 -6 -60 -10 -25 -4 -54 -9 -65 -11 -23 -4 -83
-13 -122 -18 -15 -2 -48 -7 -73 -10 -25 -4 -61 -8 -80 -11 -102 -13 -125 -17
-130 -20 -15 -10 -29 15 -35 64 -4 30 -11 65 -16 78 -5 13 -7 23 -4 23 2 0 -8
28 -21 62 -89 219 -264 340 -508 352 -389 18 -795 -312 -915 -744 -29 -104
-36 -174 -34 -320 3 -290 122 -507 348 -635 28 -16 51 -29 53 -30 3 -2 -55
-106 -118 -210 -77 -128 -319 -465 -387 -540 -10 -11 -52 -61 -93 -110 -101
-122 -391 -410 -520 -518 -514 -428 -1030 -647 -1445 -615 -49 4 -100 10 -112
13 -13 3 -31 7 -40 9 -112 26 -242 95 -316 167 l-28 28 23 14 c13 8 63 38 112
67 330 196 644 437 886 680 208 207 336 369 496 627 39 62 146 279 178 361
125 314 151 551 91 832 -4 19 -21 64 -37 99 -126 284 -404 454 -756 465 -106
3 -187 -4 -342 -30 -52 -9 -279 -75 -325 -94 -11 -5 -76 -32 -145 -61 -307
-129 -605 -316 -875 -548 -141 -122 -305 -287 -395 -400 -19 -24 -39 -48 -45
-55 -86 -97 -243 -343 -331 -518 -78 -156 -175 -417 -198 -534 -2 -10 -11 -53
-19 -94 -31 -150 -44 -298 -41 -466 1 -106 10 -236 19 -279 3 -11 7 -36 9 -55
5 -32 17 -95 32 -161 6 -26 3 -27 -98 -59 -56 -17 -114 -36 -128 -41 -23 -8
-230 -60 -290 -73 -79 -17 -126 -26 -168 -32 -26 -3 -50 -8 -53 -10 -3 -2 -34
-6 -70 -10 -35 -3 -67 -8 -70 -10 -23 -13 -387 -22 -474 -12 -335 39 -490 294
-389 639 17 58 23 72 79 194 21 44 51 109 67 145 17 36 53 112 80 170 28 58
77 164 110 235 33 72 83 177 110 235 28 58 97 206 155 330 58 124 134 285 169
359 35 73 64 135 64 136 0 2 34 73 75 160 41 86 75 158 75 160 0 1 36 78 80
169 44 92 80 169 80 170 0 2 32 69 70 150 39 80 85 179 104 219 19 39 54 115
79 167 24 52 67 143 95 201 46 99 52 106 83 112 19 3 61 11 94 17 33 6 98 17
145 25 47 8 96 17 110 20 14 2 36 7 50 10 14 2 41 7 60 11 19 3 98 17 175 30
77 14 155 27 174 30 18 3 43 8 55 10 11 2 35 7 51 9 17 3 80 14 140 25 61 10
124 21 140 24 103 18 324 57 345 61 14 3 39 7 55 10 17 3 41 7 55 10 14 3 41
7 60 10 19 3 46 8 60 10 14 3 36 7 50 10 14 3 36 7 50 10 14 2 41 7 60 10 83
13 158 26 200 35 25 5 61 12 80 15 19 2 46 7 60 9 110 20 280 50 350 62 47 7
96 16 110 19 22 4 74 14 165 30 17 3 41 7 55 9 14 3 79 14 145 26 66 11 143
25 170 30 28 5 66 11 85 15 36 6 126 22 170 30 14 2 104 18 200 35 96 17 236
42 310 56 74 13 148 26 165 29 16 2 65 11 110 19 44 8 96 17 115 20 19 3 46 8
60 11 31 6 46 9 197 35 67 11 132 23 144 25 13 3 41 7 63 11 21 3 80 16 131
29 172 43 245 102 250 203 5 104 -56 171 -175 190 -50 9 -240 8 -420 -2 -85
-5 -184 -10 -220 -11 -94 -4 -291 -15 -390 -20 -47 -3 -134 -7 -195 -10 -60
-3 -150 -7 -200 -10 -49 -3 -137 -7 -195 -10 -58 -3 -139 -7 -180 -10 -41 -2
-133 -7 -205 -10 -71 -3 -161 -8 -200 -10 -38 -3 -124 -7 -190 -10 -320 -15
-397 -19 -595 -30 -47 -3 -137 -7 -200 -10 -121 -6 -208 -10 -380 -20 -58 -3
-154 -8 -215 -10 -60 -3 -153 -8 -205 -11 -52 -2 -138 -7 -190 -9 -85 -4 -177
-9 -368 -20 -57 -4 -63 -2 -57 13 21 54 65 192 70 222 3 19 11 53 18 75 6 24
11 107 11 205 -1 137 -4 178 -22 245 -80 293 -310 529 -586 601 -69 18 -144
23 -196 14z m2925 -3656 c62 -13 121 -68 131 -122 4 -19 4 -64 1 -100 -30
-398 -705 -1231 -1280 -1581 -37 -22 -69 -41 -71 -41 -4 0 -15 48 -23 98 -24
157 -16 341 22 502 14 58 27 116 30 129 9 39 76 202 113 276 196 392 538 724
847 822 98 31 143 34 230 17z"/>
<path d="M4683 16444 c-400 -70 -753 -394 -844 -774 -19 -78 -16 -272 4 -338
81 -265 303 -430 595 -445 379 -18 782 225 961 579 115 229 123 481 19 676
-38 71 -125 163 -201 212 -57 36 -178 82 -241 92 -69 11 -225 10 -293 -2z"/>
<path d="M4758 9260 c-12 -29 -168 -477 -378 -1080 -43 -124 -96 -276 -118
-337 l-40 -113 37 -1 c43 -2 125 1 126 4 1 1 32 97 71 212 l69 210 292 1 292
1 43 -126 c23 -69 43 -128 43 -131 3 -19 47 -148 54 -159 7 -11 29 -14 82 -13
39 1 73 3 75 5 2 2 -44 140 -69 207 -8 21 -96 275 -114 330 -8 25 -17 52 -20
60 -4 8 -7 17 -7 20 -2 8 -47 132 -56 155 -5 11 -35 99 -68 195 -87 253 -142
413 -149 430 -4 8 -7 17 -8 20 0 3 -11 34 -23 70 l-22 65 -51 0 c-46 0 -53 -3
-61 -25z m147 -486 c48 -147 104 -318 125 -380 l39 -114 -252 0 -252 0 125
380 c68 209 125 380 126 380 1 0 41 -120 89 -266z"/>
<path d="M9195 9277 c-8 -4 -18 -22 -24 -40 -5 -17 -41 -124 -81 -237 -40
-113 -78 -223 -85 -245 -7 -22 -43 -125 -80 -230 -215 -611 -276 -788 -271
-792 4 -4 58 -6 113 -4 l42 1 69 213 69 212 286 1 c157 1 290 -2 295 -5 5 -3
40 -98 77 -211 37 -113 69 -206 70 -208 5 -6 137 -7 147 -1 7 4 3 26 -10 65
-12 33 -71 203 -132 379 -61 176 -129 370 -150 430 -21 61 -73 209 -115 330
-42 121 -87 249 -101 285 l-24 65 -41 0 c-22 0 -47 -3 -54 -8z m65 -289 c7
-24 15 -47 16 -53 1 -5 50 -154 108 -330 58 -176 106 -321 106 -322 0 -2 -113
-3 -251 -3 -197 0 -250 3 -246 13 2 6 58 175 123 374 65 200 122 363 125 363
3 0 12 -19 19 -42z"/>
<path d="M20925 9269 c-225 -46 -361 -185 -425 -434 -29 -115 -31 -133 -35
-310 -10 -458 129 -720 420 -795 81 -21 242 -28 345 -14 89 11 218 48 230 65
10 14 5 134 -5 131 -5 -1 -45 -14 -88 -27 -42 -14 -92 -27 -110 -30 -17 -3
-44 -8 -58 -10 -45 -8 -171 -8 -219 -1 -71 12 -162 60 -213 114 -111 120 -158
293 -152 562 1 85 5 165 8 176 3 12 8 37 11 55 22 139 113 287 209 344 105 61
263 72 456 31 14 -3 52 -15 85 -26 34 -11 65 -19 71 -17 5 1 10 30 10 64 2 61
2 62 -34 77 -125 54 -359 75 -506 45z"/>
<path d="M2518 9259 c-10 -7 -16 -1514 -6 -1524 4 -4 78 -8 115 -6 l22 1 -4
668 -4 667 41 -85 c22 -47 93 -200 158 -340 65 -140 142 -307 172 -370 30 -63
74 -158 97 -210 l44 -96 58 -2 58 -2 34 73 c19 39 78 167 132 282 53 116 111
239 127 275 70 149 113 241 160 345 27 61 53 113 57 117 6 7 5 -891 -2 -1210
-1 -84 1 -112 11 -113 16 -1 86 -1 112 0 20 1 20 8 20 766 0 503 -3 765 -10
766 -47 4 -169 1 -177 -4 -5 -3 -36 -64 -68 -134 -32 -70 -76 -166 -98 -213
-21 -47 -61 -132 -87 -190 -26 -58 -67 -145 -90 -195 -44 -95 -56 -122 -88
-195 -11 -25 -36 -78 -55 -118 l-34 -73 -16 33 c-8 18 -66 143 -127 278 -62
135 -143 312 -181 393 -38 81 -69 150 -69 151 0 2 -23 53 -51 112 -28 60 -55
119 -60 132 -5 12 -14 22 -21 23 -76 4 -162 3 -170 -2z"/>
<path d="M5745 9260 l-30 -5 0 -762 0 -761 40 -4 c22 -2 54 -1 70 2 l30 5 0
293 c0 189 3 296 10 300 6 4 34 35 64 70 29 34 57 61 62 60 4 -2 69 -84 143
-183 75 -99 142 -187 149 -195 7 -8 70 -90 140 -182 72 -95 135 -168 145 -169
33 -2 157 2 160 6 2 2 -131 176 -295 387 -164 210 -311 399 -325 418 l-27 35
91 105 c50 58 107 123 127 146 20 22 59 67 86 99 62 72 46 53 238 273 26 31
47 58 47 61 0 5 -134 6 -172 2 -7 -1 -48 -50 -416 -491 -118 -140 -217 -256
-221 -258 -3 -1 -6 167 -6 373 0 327 -2 375 -15 376 -8 0 -26 1 -40 2 -14 1
-38 0 -55 -3z"/>
<path d="M7047 9262 c-15 -3 -16 -63 -15 -768 1 -543 4 -764 12 -765 13 0 856
0 871 0 6 1 10 28 11 61 0 46 -3 61 -15 64 -9 2 -175 4 -369 4 -194 0 -356 3
-360 7 -4 3 -7 139 -7 301 l0 294 337 0 338 0 0 65 c0 61 -2 65 -22 66 -13 0
-165 1 -338 2 l-315 2 0 268 c0 175 3 267 10 267 5 0 174 1 375 1 l365 0 0 65
c0 36 -4 64 -10 65 -36 2 -855 3 -868 1z"/>
<path d="M10607 9262 c-11 -2 -17 -14 -18 -30 -1 -33 -1 -1471 0 -1492 1 -13
35 -15 248 -13 279 2 304 4 413 33 198 52 354 251 385 491 4 30 9 65 11 79 6
38 6 334 0 351 -3 7 -8 32 -11 54 -44 305 -228 489 -519 521 -58 7 -482 11
-509 6z m503 -138 c25 -4 51 -8 59 -10 40 -8 145 -70 181 -107 61 -63 116
-183 136 -297 16 -92 22 -308 10 -367 -3 -15 -8 -48 -12 -73 -3 -24 -8 -48
-10 -52 -3 -4 -7 -18 -9 -30 -9 -47 -76 -166 -115 -205 -97 -96 -194 -124
-423 -124 -89 -1 -170 0 -179 0 -17 1 -18 38 -18 635 l0 635 23 3 c38 5 310
-1 357 -8z"/>
<path d="M12080 9262 c-10 -4 -15 -1523 -6 -1533 2 -2 35 -3 73 -1 l68 3 0
759 c0 417 -3 762 -7 766 -8 7 -110 12 -128 6z"/>
<path d="M12670 9260 c-4 -3 -7 -349 -6 -769 l1 -764 48 1 c26 0 57 1 70 1
l22 1 0 363 0 362 328 3 c180 1 327 6 328 10 4 37 3 106 -2 114 -4 7 -120 10
-328 10 -235 0 -321 3 -322 11 -1 7 -2 128 -3 270 -1 222 1 257 14 258 8 0
172 1 364 2 l349 2 -1 58 c0 32 -3 61 -6 64 -7 7 -845 10 -856 3z"/>
<path d="M13892 9252 c-2 -7 -5 -352 -6 -767 l-1 -754 35 -3 c19 -2 52 -1 73
1 l37 3 0 364 0 364 329 0 329 0 1 65 0 65 -42 1 c-23 0 -171 0 -329 0 l-288
0 0 269 0 270 43 1 c23 0 187 0 365 0 l322 0 0 67 0 67 -431 0 c-344 0 -433
-3 -437 -13z"/>
<path d="M15122 9255 c-4 -5 -7 -351 -7 -767 l0 -758 25 -1 c33 0 830 0 851 0
12 1 15 13 14 64 l-1 62 -361 1 c-199 1 -367 4 -375 6 -11 5 -13 62 -13 299
l0 294 340 5 340 5 1 63 1 62 -36 1 c-20 0 -172 0 -338 1 -167 0 -304 3 -304
7 -1 3 -2 124 -3 269 l-1 262 30 1 c16 0 185 0 375 0 l345 1 0 64 c0 57 -2 64
-20 65 -168 6 -858 2 -863 -6z"/>
<path d="M16396 9258 c-11 -6 -14 -152 -14 -765 0 -417 4 -760 8 -763 4 -3 37
-4 71 -2 l64 3 -1 333 -1 333 210 -1 210 -1 69 -135 c38 -74 115 -224 170
-332 56 -108 107 -198 115 -200 9 -2 46 -2 84 0 l69 4 -29 51 c-15 29 -56 106
-91 172 -34 66 -84 161 -110 210 -114 216 -130 247 -130 255 0 5 15 12 33 16
73 16 160 90 199 169 36 72 52 236 34 345 -18 109 -80 198 -173 248 -68 35
-114 49 -203 58 -89 9 -568 11 -584 2z m571 -132 c107 -8 179 -53 220 -134 15
-30 18 -61 18 -162 0 -138 -12 -175 -73 -234 -59 -56 -110 -64 -372 -63 l-235
2 -1 297 c-1 294 -1 297 20 300 32 5 353 0 423 -6z"/>
<path d="M17760 9260 c-5 -3 -8 -348 -8 -768 l0 -762 27 -1 c37 0 821 -1 847
0 19 1 21 7 19 64 l-1 62 -364 2 c-201 1 -370 2 -375 2 -6 1 -10 108 -10 301
l0 300 337 0 c331 0 338 0 339 20 2 70 1 101 -4 106 -4 4 -155 6 -337 6 -181
0 -331 3 -331 6 -1 4 -2 125 -3 270 l-1 262 175 1 c96 0 265 0 375 0 l200 1 1
64 c0 58 -1 64 -20 65 -114 3 -860 3 -866 -1z"/>
<path d="M19038 9262 c-17 -3 -18 -48 -18 -768 0 -826 -4 -766 50 -766 11 0
36 0 56 1 l35 1 -2 610 c-2 335 0 612 3 616 4 3 12 -4 18 -16 14 -26 505 -770
518 -785 5 -6 11 -15 13 -21 2 -5 62 -98 134 -206 l130 -196 42 -4 c24 -2 49
-1 56 2 10 4 12 164 12 764 0 710 -1 759 -17 765 -14 5 -85 6 -119 2 -3 -1 -5
-278 -3 -616 2 -529 -2 -665 -18 -602 -2 6 -101 161 -222 342 -120 182 -300
453 -399 603 -107 162 -186 272 -196 273 -9 0 -25 2 -36 3 -11 1 -28 0 -37 -2z"/>
<path d="M21849 9259 c-5 -3 -8 -317 -7 -768 l3 -764 430 1 c237 1 436 1 443
1 8 1 12 21 12 65 l0 64 -362 0 c-200 0 -369 1 -375 1 -10 1 -13 68 -13 301
l0 300 340 0 341 0 -3 67 -3 66 -337 -1 -338 -1 0 270 0 269 53 1 c28 0 197 0
375 0 293 1 322 2 323 17 3 47 0 104 -5 109 -7 8 -865 10 -877 2z"/>
</g>
</svg>
